<svg width="1010" height="3515" viewBox="0 0 1010 3515" fill="none" xmlns="http://www.w3.org/2000/svg">
<path opacity="0.8" fill-rule="evenodd" clip-rule="evenodd" d="M641.26 5.11264L643.436 1.24508L642.564 0.754883L640.389 4.62244L641.26 5.11264ZM632.56 20.5826L636.91 12.8476L636.039 12.3574L631.688 20.0924L632.56 20.5826ZM623.86 36.0524L628.21 28.3175L627.338 27.8273L622.988 35.5622L623.86 36.0524ZM615.159 51.5224L619.509 43.7874L618.638 43.2972L614.288 51.0322L615.159 51.5224ZM606.459 66.9922L610.809 59.2573L609.937 58.7671L605.587 66.5021L606.459 66.9922ZM597.758 82.4622L602.109 74.7272L601.237 74.237L596.887 81.972L597.758 82.4622ZM589.058 97.9321L593.408 90.1971L592.537 89.7069L588.186 97.4419L589.058 97.9321ZM580.358 113.402L584.708 105.667L583.836 105.177L579.486 112.912L580.358 113.402ZM571.657 128.872L576.007 121.137L575.136 120.647L570.786 128.382L571.657 128.872ZM562.957 144.342L567.307 136.607L566.435 136.117L562.085 143.852L562.957 144.342ZM554.256 159.812L558.607 152.077L557.735 151.587L553.385 159.321L554.256 159.812ZM545.556 175.282L549.906 167.547L549.035 167.056L544.684 174.791L545.556 175.282ZM536.856 190.751L541.206 183.017L540.334 182.526L535.984 190.261L536.856 190.751ZM528.155 206.221L532.505 198.486L531.634 197.996L527.284 205.731L528.155 206.221ZM519.455 221.691L523.805 213.956L522.933 213.466L518.583 221.201L519.455 221.691ZM510.754 237.161L515.105 229.426L514.233 228.936L509.883 236.671L510.754 237.161ZM502.054 252.631L506.404 244.896L505.533 244.406L501.182 252.141L502.054 252.631ZM493.354 268.101L497.704 260.366L496.832 259.876L492.482 267.611L493.354 268.101ZM484.653 283.571L489.003 275.836L488.132 275.346L483.782 283.081L484.653 283.571ZM475.953 299.041L480.303 291.306L479.431 290.816L475.081 298.551L475.953 299.041ZM467.252 314.511L471.603 306.776L470.731 306.286L466.381 314.02L467.252 314.511ZM458.552 329.981L462.902 322.246L462.031 321.755L457.68 329.49L458.552 329.981ZM452.027 341.583L454.202 337.716L453.33 337.225L451.155 341.093C451.079 341.228 451.016 341.369 450.967 341.515L449.57 345.635L450.517 345.956L451.914 341.837C451.943 341.749 451.981 341.664 452.027 341.583ZM444.929 362.434L447.723 354.195L446.776 353.874L443.982 362.113L444.929 362.434ZM439.341 378.912L442.135 370.673L441.188 370.352L438.394 378.591L439.341 378.912ZM433.754 395.391L436.548 387.152L435.601 386.83L432.807 395.07L433.754 395.391ZM428.166 411.869L430.96 403.63L430.013 403.309L427.219 411.548L428.166 411.869ZM422.579 428.347L425.372 420.108L424.425 419.787L421.632 428.026L422.579 428.347ZM416.991 444.825L419.785 436.586L418.838 436.265L416.044 444.504L416.991 444.825ZM411.403 461.303L414.197 453.064L413.25 452.743L410.456 460.982L411.403 461.303ZM405.816 477.781L408.609 469.542L407.662 469.221L404.869 477.46L405.816 477.781ZM400.228 494.259L403.022 486.02L402.075 485.699L399.281 493.938L400.228 494.259ZM394.64 510.738L397.434 502.499L396.487 502.177L393.693 510.416L394.64 510.738ZM389.053 527.216L391.847 518.977L390.9 518.656L388.106 526.895L389.053 527.216ZM383.465 543.694L386.259 535.455L385.312 535.134L382.518 543.373L383.465 543.694ZM377.878 560.172L380.671 551.933L379.724 551.612L376.931 559.851L377.878 560.172ZM373.687 572.531L375.084 568.411L374.137 568.09L372.74 572.21C372.566 572.721 372.563 573.274 372.731 573.787L374.09 577.955L375.04 577.645L373.681 573.477C373.581 573.169 373.583 572.837 373.687 572.531ZM380.476 594.315L377.758 585.98L376.807 586.29L379.525 594.625L380.476 594.315ZM385.912 610.984L383.194 602.649L382.243 602.96L384.961 611.294L385.912 610.984ZM391.348 627.654L388.63 619.319L387.679 619.629L390.397 627.964L391.348 627.654ZM396.783 644.324L394.066 635.989L393.115 636.299L395.833 644.634L396.783 644.324ZM402.219 660.994L399.501 652.659L398.551 652.969L401.269 661.304L402.219 660.994ZM407.655 677.663L404.937 669.329L403.986 669.639L406.704 677.973L407.655 677.663ZM413.091 694.333L410.373 685.998L409.422 686.308L412.14 694.643L413.091 694.333ZM418.527 711.003L415.809 702.668L414.858 702.978L417.576 711.313L418.527 711.003ZM423.962 727.673L421.245 719.338L420.294 719.648L423.012 727.983L423.962 727.673ZM429.398 744.343L426.68 736.008L425.73 736.318L428.448 744.653L429.398 744.343ZM433.475 756.845L432.116 752.678L431.165 752.988L432.524 757.155L433.475 756.845ZM622.065 13.2533L434.158 344.588C434.081 344.726 434.016 344.87 433.965 345.019L355.74 575.71C355.566 576.221 355.563 576.774 355.731 577.287L415.524 760.655L416.475 760.345L356.681 576.977C356.581 576.669 356.583 576.337 356.687 576.031L434.912 345.34C434.943 345.251 434.982 345.164 435.028 345.082L622.935 13.7466L622.065 13.2533ZM1009.5 1472.56L981.044 1722.64C981.005 1722.98 980.896 1723.31 980.723 1723.61L853.977 1942.31C853.553 1943.04 852.785 1943.51 851.939 1943.55L502.926 1960.98C502.727 1960.99 502.533 1961.04 502.353 1961.12L36.7156 2183.95L36.2839 2183.05L501.922 1960.22C502.221 1960.08 502.545 1960 502.876 1959.98L851.889 1942.55C852.397 1942.53 852.857 1942.25 853.112 1941.81L979.858 1723.11C979.961 1722.93 980.027 1722.73 980.05 1722.53L1008.5 1472.44L1009.5 1472.56ZM972.124 1466.39L972.498 1462.04L971.502 1461.96L971.127 1466.3L972.124 1466.39ZM970.626 1483.76L971.375 1475.07L970.379 1474.98L969.63 1483.67L970.626 1483.76ZM969.129 1501.13L969.877 1492.44L968.881 1492.36L968.132 1501.04L969.129 1501.13ZM967.631 1518.5L968.38 1509.81L967.384 1509.73L966.635 1518.41L967.631 1518.5ZM966.134 1535.87L966.883 1527.18L965.886 1527.1L965.137 1535.78L966.134 1535.87ZM964.636 1553.24L965.385 1544.55L964.389 1544.47L963.64 1553.15L964.636 1553.24ZM963.139 1570.61L963.888 1561.92L962.891 1561.84L962.143 1570.52L963.139 1570.61ZM961.641 1587.98L962.39 1579.29L961.394 1579.21L960.645 1587.89L961.641 1587.98ZM960.144 1605.35L960.893 1596.66L959.896 1596.58L959.148 1605.26L960.144 1605.35ZM958.647 1622.72L959.395 1614.03L958.399 1613.95L957.65 1622.63L958.647 1622.72ZM957.149 1640.09L957.898 1631.4L956.902 1631.32L956.153 1640L957.149 1640.09ZM955.652 1657.46L956.4 1648.77L955.404 1648.69L954.655 1657.37L955.652 1657.46ZM954.154 1674.83L954.903 1666.14L953.907 1666.06L953.158 1674.74L954.154 1674.83ZM952.657 1692.2L953.406 1683.51L952.409 1683.43L951.66 1692.11L952.657 1692.2ZM951.159 1709.57L951.908 1700.89L950.912 1700.8L950.163 1709.48L951.159 1709.57ZM950.036 1722.6L950.411 1718.26L949.414 1718.17L949.04 1722.51C949.021 1722.73 948.954 1722.94 948.843 1723.14L946.581 1727.04L947.446 1727.54L949.708 1723.64C949.893 1723.32 950.005 1722.96 950.036 1722.6ZM938.396 1743.16L942.921 1735.35L942.056 1734.85L937.531 1742.66L938.396 1743.16ZM929.346 1758.77L933.871 1750.96L933.006 1750.46L928.481 1758.27L929.346 1758.77ZM920.296 1774.39L924.821 1766.58L923.956 1766.08L919.431 1773.89L920.296 1774.39ZM911.247 1790L915.771 1782.2L914.906 1781.69L910.381 1789.5L911.247 1790ZM902.197 1805.62L906.722 1797.81L905.856 1797.31L901.331 1805.12L902.197 1805.62ZM893.147 1821.23L897.672 1813.43L896.807 1812.92L892.282 1820.73L893.147 1821.23ZM884.097 1836.85L888.622 1829.04L887.757 1828.54L883.232 1836.35L884.097 1836.85ZM875.047 1852.46L879.572 1844.66L878.707 1844.16L874.182 1851.96L875.047 1852.46ZM865.997 1868.08L870.522 1860.27L869.657 1859.77L865.132 1867.58L865.997 1868.08ZM856.947 1883.7L861.472 1875.89L860.607 1875.39L856.082 1883.19L856.947 1883.7ZM847.897 1899.31L852.422 1891.5L851.557 1891L847.032 1898.81L847.897 1899.31ZM838.848 1914.93L843.372 1907.12L842.507 1906.62L837.982 1914.43L838.848 1914.93ZM829.798 1930.54L834.323 1922.73L833.457 1922.23L828.932 1930.04L829.798 1930.54ZM823.01 1942.25L825.273 1938.35L824.408 1937.85L822.145 1941.75C821.877 1942.22 821.382 1942.5 820.847 1942.5H816.425V1943.5H820.847C821.739 1943.5 822.563 1943.03 823.01 1942.25ZM501.804 1943.65C502.009 1943.55 502.233 1943.5 502.461 1943.5H506.883V1942.5H502.461C502.082 1942.5 501.707 1942.59 501.367 1942.75L497.357 1944.7L497.795 1945.6L501.804 1943.65ZM515.727 1943.5H524.571V1942.5H515.727V1943.5ZM533.415 1943.5H542.259V1942.5H533.415V1943.5ZM551.103 1943.5H559.947V1942.5H551.103V1943.5ZM568.791 1943.5H577.635V1942.5H568.791V1943.5ZM586.479 1943.5H595.323V1942.5H586.479V1943.5ZM604.167 1943.5H613.011V1942.5H604.167V1943.5ZM621.856 1943.5H630.7V1942.5H621.856V1943.5ZM639.544 1943.5H648.388V1942.5H639.544V1943.5ZM657.232 1943.5H666.076V1942.5H657.232V1943.5ZM674.92 1943.5H683.764V1942.5H674.92V1943.5ZM692.608 1943.5H701.452V1942.5H692.608V1943.5ZM710.296 1943.5H719.14V1942.5H710.296V1943.5ZM727.984 1943.5H736.828V1942.5H727.984V1943.5ZM745.673 1943.5H754.517V1942.5H745.673V1943.5ZM763.361 1943.5H772.205V1942.5H763.361V1943.5ZM781.049 1943.5H789.893V1942.5H781.049V1943.5ZM798.737 1943.5H807.581V1942.5H798.737V1943.5ZM481.757 1953.41L489.776 1949.5L489.339 1948.6L481.32 1952.51L481.757 1953.41ZM465.72 1961.21L473.739 1957.31L473.301 1956.41L465.282 1960.31L465.72 1961.21ZM449.683 1969.01L457.701 1965.11L457.264 1964.21L449.245 1968.11L449.683 1969.01ZM433.645 1976.82L441.664 1972.91L441.226 1972.01L433.208 1975.92L433.645 1976.82ZM417.608 1984.62L425.626 1980.72L425.189 1979.82L417.17 1983.72L417.608 1984.62ZM401.57 1992.42L409.589 1988.52L409.151 1987.62L401.133 1991.52L401.57 1992.42ZM385.533 2000.23L393.552 1996.32L393.114 1995.42L385.095 1999.33L385.533 2000.23ZM369.495 2008.03L377.514 2004.13L377.077 2003.23L369.058 2007.13L369.495 2008.03ZM353.458 2015.83L361.477 2011.93L361.039 2011.03L353.02 2014.93L353.458 2015.83ZM337.42 2023.64L345.439 2019.73L345.002 2018.84L336.983 2022.74L337.42 2023.64ZM321.383 2031.44L329.402 2027.54L328.964 2026.64L320.945 2030.54L321.383 2031.44ZM305.346 2039.24L313.364 2035.34L312.927 2034.44L304.908 2038.34L305.346 2039.24ZM289.308 2047.05L297.327 2043.14L296.889 2042.25L288.871 2046.15L289.308 2047.05ZM273.271 2054.85L281.289 2050.95L280.852 2050.05L272.833 2053.95L273.271 2054.85ZM257.233 2062.65L265.252 2058.75L264.814 2057.85L256.796 2061.75L257.233 2062.65ZM241.196 2070.46L249.215 2066.55L248.777 2065.66L240.758 2069.56L241.196 2070.46ZM225.158 2078.26L233.177 2074.36L232.74 2073.46L224.721 2077.36L225.158 2078.26ZM209.121 2086.06L217.14 2082.16L216.702 2081.26L208.683 2085.16L209.121 2086.06ZM193.084 2093.87L201.102 2089.96L200.665 2089.07L192.646 2092.97L193.084 2093.87ZM177.046 2101.67L185.065 2097.77L184.627 2096.87L176.609 2100.77L177.046 2101.67ZM161.009 2109.47L169.027 2105.57L168.59 2104.67L160.571 2108.57L161.009 2109.47ZM144.971 2117.28L152.99 2113.37L152.552 2112.48L144.534 2116.38L144.971 2117.28ZM128.934 2125.08L136.953 2121.18L136.515 2120.28L128.496 2124.18L128.934 2125.08ZM112.896 2132.88L120.915 2128.98L120.478 2128.08L112.459 2131.98L112.896 2132.88ZM96.8589 2140.69L104.878 2136.79L104.44 2135.89L96.4214 2139.79L96.8589 2140.69ZM80.8215 2148.49L88.8402 2144.59L88.4027 2143.69L80.3839 2147.59L80.8215 2148.49ZM64.784 2156.29L72.8028 2152.39L72.3652 2151.49L64.3465 2155.39L64.784 2156.29ZM48.7466 2164.1L56.7653 2160.2L56.3278 2159.3L48.3091 2163.2L48.7466 2164.1ZM36.7185 2169.95L40.7279 2168L40.2904 2167.1L36.281 2169.05L36.7185 2169.95ZM691.219 1116.33L450.612 820.315L451.388 819.685L691.995 1115.7C692.315 1116.09 692.507 1116.58 692.547 1117.08L707.91 1312.84C707.951 1313.36 708.262 1313.82 708.73 1314.06L984.225 1453.05L983.775 1453.95L708.279 1314.95C707.5 1314.56 706.982 1313.79 706.913 1312.92L691.55 1117.16C691.526 1116.86 691.411 1116.57 691.219 1116.33ZM437.612 823.315L440.476 826.839L441.252 826.208L438.388 822.685L437.612 823.315ZM446.205 833.887L451.933 840.935L452.709 840.304L446.981 833.256L446.205 833.887ZM457.662 847.982L463.39 855.03L464.166 854.399L458.438 847.352L457.662 847.982ZM469.119 862.078L474.847 869.126L475.623 868.495L469.895 861.447L469.119 862.078ZM480.576 876.173L486.304 883.221L487.08 882.59L481.352 875.543L480.576 876.173ZM492.033 890.269L497.761 897.317L498.537 896.686L492.809 889.638L492.033 890.269ZM503.49 904.364L509.218 911.412L509.994 910.781L504.266 903.734L503.49 904.364ZM514.947 918.46L520.675 925.508L521.451 924.877L515.723 917.829L514.947 918.46ZM526.404 932.555L532.132 939.603L532.908 938.972L527.18 931.925L526.404 932.555ZM537.861 946.651L543.589 953.698L544.365 953.068L538.637 946.02L537.861 946.651ZM549.318 960.746L555.046 967.794L555.822 967.163L550.094 960.115L549.318 960.746ZM560.775 974.842L566.503 981.889L567.279 981.259L561.551 974.211L560.775 974.842ZM572.232 988.937L577.96 995.985L578.736 995.354L573.008 988.306L572.232 988.937ZM583.689 1003.03L589.417 1010.08L590.193 1009.45L584.465 1002.4L583.689 1003.03ZM595.146 1017.13L600.874 1024.18L601.65 1023.55L595.922 1016.5L595.146 1017.13ZM606.603 1031.22L612.331 1038.27L613.107 1037.64L607.379 1030.59L606.603 1031.22ZM618.06 1045.32L623.788 1052.37L624.564 1051.74L618.836 1044.69L618.06 1045.32ZM629.517 1059.41L635.245 1066.46L636.021 1065.83L630.293 1058.78L629.517 1059.41ZM640.974 1073.51L646.703 1080.56L647.479 1079.93L641.75 1072.88L640.974 1073.51ZM652.431 1087.61L658.16 1094.65L658.936 1094.02L653.207 1086.97L652.431 1087.61ZM663.888 1101.7L669.617 1108.75L670.393 1108.12L664.664 1101.07L663.888 1101.7ZM675.345 1115.8L678.209 1119.32C678.406 1119.56 678.522 1119.86 678.542 1120.17L678.835 1124.68L679.833 1124.61L679.54 1120.1C679.506 1119.59 679.313 1119.09 678.985 1118.69L676.121 1115.17L675.345 1115.8ZM679.421 1133.69L680.007 1142.7L681.005 1142.64L680.419 1133.62L679.421 1133.69ZM680.593 1151.71L681.178 1160.73L682.176 1160.66L681.591 1151.65L680.593 1151.71ZM681.764 1169.74L682.35 1178.75L683.348 1178.69L682.762 1169.68L681.764 1169.74ZM682.936 1187.77L683.522 1196.78L684.52 1196.71L683.934 1187.7L682.936 1187.77ZM684.108 1205.79L684.694 1214.81L685.691 1214.74L685.106 1205.73L684.108 1205.79ZM685.279 1223.82L685.865 1232.83L686.863 1232.77L686.277 1223.75L685.279 1223.82ZM686.451 1241.84L687.037 1250.86L688.035 1250.79L687.449 1241.78L686.451 1241.84ZM687.623 1259.87L688.209 1268.88L689.207 1268.82L688.621 1259.81L687.623 1259.87ZM688.794 1277.9L689.38 1286.91L690.378 1286.84L689.792 1277.83L688.794 1277.9ZM689.966 1295.92L690.552 1304.94L691.55 1304.87L690.964 1295.86L689.966 1295.92ZM691.138 1313.95L691.431 1318.45C691.485 1319.3 691.96 1320.05 692.693 1320.47L696.701 1322.74L697.194 1321.87L693.186 1319.6C692.746 1319.35 692.461 1318.89 692.429 1318.39L692.136 1313.88L691.138 1313.95ZM704.718 1327.28L712.734 1331.83L713.227 1330.96L705.211 1326.41L704.718 1327.28ZM720.751 1336.37L728.767 1340.91L729.26 1340.04L721.244 1335.5L720.751 1336.37ZM736.784 1345.45L744.8 1350L745.293 1349.13L737.277 1344.58L736.784 1345.45ZM752.816 1354.54L760.833 1359.08L761.326 1358.21L753.31 1353.67L752.816 1354.54ZM768.849 1363.63L776.866 1368.17L777.359 1367.3L769.343 1362.76L768.849 1363.63ZM784.882 1372.71L792.899 1377.26L793.392 1376.39L785.375 1371.84L784.882 1372.71ZM800.915 1381.8L808.932 1386.34L809.425 1385.47L801.408 1380.93L800.915 1381.8ZM816.948 1390.89L824.965 1395.43L825.458 1394.56L817.441 1390.02L816.948 1390.89ZM832.981 1399.97L840.998 1404.52L841.491 1403.65L833.474 1399.1L832.981 1399.97ZM849.014 1409.06L857.031 1413.6L857.524 1412.73L849.507 1408.19L849.014 1409.06ZM865.047 1418.15L873.064 1422.69L873.557 1421.82L865.54 1417.28L865.047 1418.15ZM881.08 1427.23L889.097 1431.77L889.59 1430.91L881.573 1426.36L881.08 1427.23ZM897.113 1436.32L905.13 1440.86L905.623 1439.99L897.606 1435.45L897.113 1436.32ZM913.146 1445.4L921.163 1449.95L921.656 1449.08L913.639 1444.53L913.146 1445.4ZM929.179 1454.49L937.196 1459.03L937.689 1458.16L929.672 1453.62L929.179 1454.49ZM945.212 1463.58L953.229 1468.12L953.722 1467.25L945.705 1462.71L945.212 1463.58ZM961.245 1472.66L965.253 1474.94L965.746 1474.06L961.738 1471.79L961.245 1472.66ZM50.4504 2866.03L14.5004 2153.53L15.4991 2153.47L51.4491 2865.98C51.4727 2866.45 51.714 2866.88 52.1011 2867.15L161.729 2942.04L162.135 2941.29L169.957 2945.53L169.481 2946.41L162.916 2942.85L344.223 3066.71C344.676 3067.01 345.015 3067.46 345.187 3067.99L417.588 3287.4L416.193 3280.64L417.172 3280.44L418.995 3289.27L418.255 3289.42L492.475 3514.34L491.525 3514.66L422.079 3304.2L422.642 3306.93L421.662 3307.13L419.839 3298.3L420.113 3298.24L344.237 3068.3C344.134 3067.99 343.931 3067.72 343.659 3067.53L153.865 2937.88L153.836 2937.93L146.014 2933.69L146.479 2932.83L51.537 2867.97C50.8918 2867.53 50.4898 2866.81 50.4504 2866.03ZM0.5 2128.02L0.640026 2132.51L1.63954 2132.48L1.49952 2127.98L0.5 2128.02ZM0.920078 2141.51L1.20013 2150.51L2.19965 2150.48L1.91959 2141.48L0.920078 2141.51ZM1.48018 2159.51L1.76023 2168.51L2.75975 2168.48L2.4797 2159.48L1.48018 2159.51ZM2.04029 2177.51L2.32034 2186.5L3.31985 2186.47L3.0398 2177.47L2.04029 2177.51ZM2.60039 2195.5L2.88044 2204.5L3.87996 2204.47L3.59991 2195.47L2.60039 2195.5ZM3.16049 2213.5L3.44054 2222.5L4.44006 2222.47L4.16001 2213.47L3.16049 2213.5ZM3.7206 2231.49L4.00065 2240.49L5.00016 2240.46L4.72011 2231.46L3.7206 2231.49ZM4.2807 2249.49L4.56075 2258.49L5.56027 2258.46L5.28022 2249.46L4.2807 2249.49ZM4.8408 2267.49L5.12086 2276.49L6.12037 2276.45L5.84032 2267.46L4.8408 2267.49ZM5.40091 2285.48L5.68096 2294.48L6.68048 2294.45L6.40042 2285.45L5.40091 2285.48ZM5.96101 2303.48L6.24106 2312.48L7.24058 2312.45L6.96053 2303.45L5.96101 2303.48ZM6.52112 2321.48L6.80117 2330.47L7.80068 2330.44L7.52063 2321.45L6.52112 2321.48ZM7.08122 2339.47L7.36127 2348.47L8.36079 2348.44L8.08074 2339.44L7.08122 2339.47ZM7.64132 2357.47L7.92138 2366.47L8.92089 2366.44L8.64084 2357.44L7.64132 2357.47ZM8.20143 2375.47L8.48148 2384.46L9.481 2384.43L9.20094 2375.43L8.20143 2375.47ZM8.76153 2393.46L9.04158 2402.46L10.0411 2402.43L9.76105 2393.43L8.76153 2393.46ZM9.32163 2411.46L9.60169 2420.46L10.6012 2420.43L10.3212 2411.43L9.32163 2411.46ZM9.88174 2429.45L10.1618 2438.45L11.1613 2438.42L10.8813 2429.42L9.88174 2429.45ZM10.4418 2447.45L10.7219 2456.45L11.7214 2456.42L11.4414 2447.42L10.4418 2447.45ZM11.0019 2465.45L11.282 2474.45L12.2815 2474.41L12.0015 2465.42L11.0019 2465.45ZM11.562 2483.44L11.8421 2492.44L12.8416 2492.41L12.5616 2483.41L11.562 2483.44ZM12.1221 2501.44L12.4022 2510.44L13.4017 2510.41L13.1217 2501.41L12.1221 2501.44ZM12.6823 2519.44L12.9623 2528.43L13.9618 2528.4L13.6818 2519.41L12.6823 2519.44ZM13.2424 2537.43L13.5224 2546.43L14.5219 2546.4L14.2419 2537.4L13.2424 2537.43ZM13.8025 2555.43L14.0825 2564.43L15.082 2564.4L14.802 2555.4L13.8025 2555.43ZM14.3626 2573.43L14.6426 2582.42L15.6421 2582.39L15.3621 2573.39L14.3626 2573.43ZM14.9227 2591.42L15.2027 2600.42L16.2022 2600.39L15.9222 2591.39L14.9227 2591.42ZM15.4828 2609.42L15.7628 2618.42L16.7623 2618.39L16.4823 2609.39L15.4828 2609.42ZM16.0429 2627.41L16.3229 2636.41L17.3224 2636.38L17.0424 2627.38L16.0429 2627.41ZM16.603 2645.41L16.883 2654.41L17.8825 2654.38L17.6025 2645.38L16.603 2645.41ZM17.1631 2663.41L17.4431 2672.41L18.4426 2672.37L18.1626 2663.38L17.1631 2663.41ZM17.7232 2681.4L18.0032 2690.4L19.0028 2690.37L18.7227 2681.37L17.7232 2681.4ZM18.2833 2699.4L18.5633 2708.4L19.5629 2708.37L19.2828 2699.37L18.2833 2699.4ZM18.8434 2717.4L19.1234 2726.4L20.123 2726.36L19.8429 2717.37L18.8434 2717.4ZM19.4035 2735.39L19.6836 2744.39L20.6831 2744.36L20.403 2735.36L19.4035 2735.39ZM19.9636 2753.39L20.2437 2762.39L21.2432 2762.36L20.9631 2753.36L19.9636 2753.39ZM20.5237 2771.39L20.8038 2780.38L21.8033 2780.35L21.5232 2771.35L20.5237 2771.39ZM21.0838 2789.38L21.3639 2798.38L22.3634 2798.35L22.0833 2789.35L21.0838 2789.38ZM21.6439 2807.38L21.924 2816.38L22.9235 2816.35L22.6434 2807.35L21.6439 2807.38ZM22.204 2825.38L22.4841 2834.37L23.4836 2834.34L23.2035 2825.34L22.204 2825.38ZM22.7641 2843.37L23.0442 2852.37L24.0437 2852.34L23.7636 2843.34L22.7641 2843.37ZM23.3242 2861.37L23.4642 2865.87C23.4919 2866.76 23.9899 2867.56 24.7719 2867.99L28.683 2870.11L29.1594 2869.23L25.2484 2867.11C24.7792 2866.85 24.4804 2866.37 24.4638 2865.84L24.3237 2861.34L23.3242 2861.37ZM36.5051 2874.35L44.3271 2878.58L44.8036 2877.71L36.9815 2873.47L36.5051 2874.35ZM52.1492 2882.82L59.9713 2887.06L60.4478 2886.18L52.6257 2881.94L52.1492 2882.82ZM67.7934 2891.3L75.6155 2895.54L76.092 2894.66L68.2699 2890.42L67.7934 2891.3ZM83.4376 2899.78L91.2597 2904.02L91.7361 2903.14L83.914 2898.9L83.4376 2899.78ZM99.0818 2908.26L106.904 2912.5L107.38 2911.62L99.5582 2907.38L99.0818 2908.26ZM114.726 2916.73L122.548 2920.97L123.024 2920.09L115.202 2915.85L114.726 2916.73ZM130.37 2925.21L138.192 2929.45L138.669 2928.57L130.847 2924.33L130.37 2925.21ZM177.303 2950.64L185.125 2954.88L185.601 2954L177.779 2949.77L177.303 2950.64ZM192.947 2959.12L200.769 2963.36L201.245 2962.48L193.423 2958.24L192.947 2959.12ZM208.591 2967.6L216.413 2971.84L216.89 2970.96L209.067 2966.72L208.591 2967.6ZM224.235 2976.08L232.057 2980.32L232.534 2979.44L224.712 2975.2L224.235 2976.08ZM239.879 2984.56L247.701 2988.79L248.178 2987.92L240.356 2983.68L239.879 2984.56ZM255.524 2993.03L263.346 2997.27L263.822 2996.39L256 2992.15L255.524 2993.03ZM271.168 3001.51L278.99 3005.75L279.466 3004.87L271.644 3000.63L271.168 3001.51ZM286.812 3009.99L294.634 3014.23L295.11 3013.35L287.288 3009.11L286.812 3009.99ZM302.456 3018.47L310.278 3022.71L310.755 3021.83L302.932 3017.59L302.456 3018.47ZM318.1 3026.94L325.922 3031.18L326.399 3030.3L318.577 3026.06L318.1 3026.94ZM333.744 3035.42L341.566 3039.66L342.043 3038.78L334.221 3034.54L333.744 3035.42ZM349.389 3043.9L357.211 3048.14L357.687 3047.26L349.865 3043.02L349.389 3043.9ZM365.033 3052.38L368.944 3054.5C369.333 3054.71 369.609 3055.08 369.698 3055.51L370.61 3059.93L371.589 3059.72L370.678 3055.31C370.528 3054.59 370.068 3053.97 369.42 3053.62L365.509 3051.5L365.033 3052.38ZM372.433 3068.75L374.256 3077.58L375.236 3077.38L373.412 3068.55L372.433 3068.75ZM376.08 3086.41L377.903 3095.24L378.882 3095.04L377.059 3086.21L376.08 3086.41ZM379.726 3104.07L381.55 3112.9L382.529 3112.7L380.706 3103.87L379.726 3104.07ZM383.373 3121.73L385.196 3130.56L386.176 3130.35L384.352 3121.52L383.373 3121.73ZM387.02 3139.38L388.843 3148.21L389.822 3148.01L387.999 3139.18L387.02 3139.38ZM390.666 3157.04L392.49 3165.87L393.469 3165.67L391.646 3156.84L390.666 3157.04ZM394.313 3174.7L396.136 3183.53L397.115 3183.32L395.292 3174.5L394.313 3174.7ZM397.959 3192.36L399.783 3201.18L400.762 3200.98L398.939 3192.15L397.959 3192.36ZM401.606 3210.01L403.429 3218.84L404.409 3218.64L402.585 3209.81L401.606 3210.01ZM405.253 3227.67L407.076 3236.5L408.055 3236.3L406.232 3227.47L405.253 3227.67ZM408.899 3245.33L410.723 3254.16L411.702 3253.95L409.879 3245.13L408.899 3245.33ZM412.546 3262.98L414.369 3271.81L415.349 3271.61L413.525 3262.78L412.546 3262.98ZM423.486 3315.96L425.309 3324.79L426.288 3324.58L424.465 3315.75L423.486 3315.96ZM427.132 3333.61L428.956 3342.44L429.935 3342.24L428.112 3333.41L427.132 3333.61ZM430.779 3351.27L432.602 3360.1L433.582 3359.9L431.758 3351.07L430.779 3351.27ZM434.426 3368.93L436.249 3377.76L437.228 3377.56L435.405 3368.73L434.426 3368.93ZM438.072 3386.59L439.895 3395.41L440.875 3395.21L439.052 3386.38L438.072 3386.59ZM441.719 3404.24L443.542 3413.07L444.521 3412.87L442.698 3404.04L441.719 3404.24ZM445.365 3421.9L447.189 3430.73L448.168 3430.53L446.345 3421.7L445.365 3421.9ZM449.012 3439.56L450.835 3448.39L451.815 3448.18L449.991 3439.36L449.012 3439.56ZM452.659 3457.22L454.482 3466.04L455.461 3465.84L453.638 3457.01L452.659 3457.22ZM456.305 3474.87L458.129 3483.7L459.108 3483.5L457.285 3474.67L456.305 3474.87ZM459.952 3492.53L461.775 3501.36L462.754 3501.16L460.931 3492.33L459.952 3492.53ZM463.598 3510.19L464.51 3514.6L465.489 3514.4L464.578 3509.98L463.598 3510.19Z" fill="#9598AC"/>
</svg>
