<svg width="123" height="48" viewBox="0 0 123 48" fill="none" xmlns="http://www.w3.org/2000/svg">
<path d="M29.1307 17.879L16.8003 10.8195L10.5007 14.4228L7.46729 12.7059L22.9229 3.85596L25.9464 5.58246L19.8927 9.04826L32.2362 16.1077L29.1307 17.879Z" fill="white"/>
<path d="M16.7706 24.12L12.4353 25.1591L7.46708 18.787L4.89279 17.4378V34.4151L7.77534 36.0137L7.71959 22.5853L10.7366 26.2622L10.8219 37.7274L13.7733 39.374L13.7503 27.9663L15.0948 27.6466L16.8854 27.6242L16.905 41.1197L19.8565 42.7695V25.9296L16.7706 24.12ZM16.7706 24.12L12.4353 25.1591L7.46708 18.787L4.89279 17.4378V34.4151L7.77534 36.0137L7.71959 22.5853L10.7366 26.2622L10.8219 37.7274L13.7733 39.374L13.7503 27.9663L15.0948 27.6466L16.8854 27.6242L16.905 41.1197L19.8565 42.7695V25.9296L16.7706 24.12ZM16.7706 24.12L12.4353 25.1591L7.46708 18.787L4.89279 17.4378V34.4151L7.77534 36.0137L7.71959 22.5853L10.7366 26.2622L10.8219 37.7274L13.7733 39.374L13.7503 27.9663L15.0948 27.6466L16.8854 27.6242L16.905 41.1197L19.8565 42.7695V25.9296L16.7706 24.12ZM16.7706 24.12L12.4353 25.1591L7.46708 18.787L4.89279 17.4378V34.4151L7.77534 36.0137L7.71959 22.5853L10.7366 26.2622L10.8219 37.7274L13.7733 39.374L13.7503 27.9663L15.0948 27.6466L16.8854 27.6242L16.905 41.1197L19.8565 42.7695V25.9296L16.7706 24.12ZM42.3495 9.52786L26.4348 0.872963C25.3821 0.300661 24.1968 0.000244141 22.9915 0.000244141C21.7862 0.000244141 20.6009 0.300661 19.5482 0.872963L3.62696 9.52786C2.52757 10.1267 1.6119 11.0006 0.974357 12.0594C0.336812 13.1182 0.000466829 14.3237 0 15.5514L0 32.452C0.00104985 33.6792 0.337671 34.884 0.975187 35.9422C1.6127 37.0005 2.52806 37.8738 3.62696 38.4724L19.5482 47.1273C20.6009 47.6996 21.7862 48 22.9915 48C24.1968 48 25.3821 47.6996 26.4348 47.1273L42.3561 38.4724C43.4558 37.8745 44.372 37.0014 45.0102 35.9431C45.6483 34.8848 45.9853 33.6796 45.9863 32.452V15.5514C45.9859 14.3233 45.6492 13.1175 45.011 12.0586C44.3728 10.9997 43.4563 10.126 42.3561 9.52786H42.3495ZM22.9882 43.4633C22.9884 43.7475 22.9121 44.0268 22.7669 44.2733C22.6217 44.5198 22.4126 44.7248 22.1607 44.8679C21.9087 45.0109 21.6227 45.087 21.3311 45.0885C21.0396 45.09 20.7527 45.0169 20.4992 44.8764L4.46319 35.9913C3.92449 35.6926 3.47655 35.2601 3.16493 34.7378C2.8533 34.2156 2.68912 33.6221 2.68907 33.0179V14.8449L20.1057 24.2479C20.9741 24.6858 21.7023 25.3481 22.2107 26.1624C22.7191 26.9766 22.9881 27.9115 22.9882 28.8647V43.4633ZM19.299 21.7029L3.86307 13.3549C3.86307 13.3549 4.66323 11.7563 6.11271 10.9538C7.46052 10.2089 20.7124 2.83926 20.7124 2.83926C21.4675 2.419 22.322 2.19796 23.1916 2.19796C24.0611 2.19796 24.9156 2.419 25.6707 2.83926C25.6707 2.83926 39.7359 10.6853 40.5721 11.1329C40.9859 11.3652 41.3482 11.6753 41.6381 12.0452C41.9281 12.4152 42.1398 12.8375 42.261 13.2878L27.1989 21.6581C25.9968 22.326 24.6385 22.681 23.255 22.6888C21.8714 22.6966 20.509 22.3571 19.299 21.7029ZM42.7102 19.9444L29.1632 27.7489V39.4347L39.3784 33.5199V29.5841L32.8492 33.36V29.5617L42.7102 23.877V33.4687C42.7087 34.0633 42.547 34.647 42.2414 35.1615C41.9358 35.676 41.497 36.1033 40.9689 36.4006L25.8249 44.95V27.7169C25.827 27.1233 25.9886 26.5405 26.2935 26.0267C26.5985 25.5129 27.0361 25.0859 27.5629 24.7882L42.7102 16.2261V19.9444ZM12.4353 25.1591L7.46708 18.787L4.89279 17.4378V34.4151L7.77534 36.0137L7.71959 22.5853L10.7366 26.2622L10.8219 37.7274L13.7733 39.374L13.7503 27.9663L15.0948 27.6466L16.8854 27.6242L16.905 41.1197L19.8565 42.7695V25.9296L16.7739 24.12L12.4353 25.1591ZM16.7706 24.12L12.4353 25.1591L7.46708 18.787L4.89279 17.4378V34.4151L7.77534 36.0137L7.71959 22.5853L10.7366 26.2622L10.8219 37.7274L13.7733 39.374L13.7503 27.9663L15.0948 27.6466L16.8854 27.6242L16.905 41.1197L19.8565 42.7695V25.9296L16.7706 24.12ZM16.7706 24.12L12.4353 25.1591L7.46708 18.787L4.89279 17.4378V34.4151L7.77534 36.0137L7.71959 22.5853L10.7366 26.2622L10.8219 37.7274L13.7733 39.374L13.7503 27.9663L15.0948 27.6466L16.8854 27.6242L16.905 41.1197L19.8565 42.7695V25.9296L16.7706 24.12Z" fill="white"/>
<path d="M58.9414 23.4873V12.719H62.3618L64.8869 18.7682H65.1755L67.6842 12.719H71.1635V23.4873H68.7008V14.2952L69.0484 14.3272L66.1297 21.3036H63.7686L60.8336 14.3272L61.2107 14.2952V23.4873H58.9414Z" fill="white"/>
<path d="M77.5389 23.7684C76.879 23.7832 76.2222 23.6747 75.6041 23.4486C75.0676 23.2468 74.5805 22.9375 74.1743 22.5406C73.7886 22.165 73.487 21.7154 73.2889 21.2202C73.0849 20.7208 72.9814 20.1878 72.9839 19.6503V19.2986C72.9876 18.7502 73.0989 18.2076 73.3119 17.7C73.5154 17.1975 73.8249 16.7422 74.2202 16.3636C74.6346 15.9713 75.1252 15.6636 75.6632 15.4588C76.8915 15.0154 78.2421 15.0154 79.4705 15.4588C80.0047 15.6634 80.491 15.9712 80.9003 16.3636C81.2828 16.7467 81.5837 17.1998 81.7857 17.6968C82.0016 18.2035 82.113 18.7467 82.1136 19.2954V19.6343C82.1157 20.1715 82.0133 20.7042 81.8119 21.2042C81.6111 21.698 81.31 22.1472 80.9265 22.5246C80.5176 22.922 80.0285 23.2323 79.4902 23.4358C78.8673 23.6665 78.2051 23.7793 77.5389 23.7684ZM77.5389 21.7765C77.9534 21.7918 78.3634 21.6896 78.7195 21.4823C79.0373 21.2812 79.2871 20.9932 79.4377 20.6543C79.6096 20.2838 79.6958 19.881 79.6902 19.4745C79.6979 19.0547 79.6094 18.6385 79.4311 18.2563C79.2699 17.9183 79.0156 17.6305 78.6966 17.425C78.3493 17.2238 77.9528 17.1176 77.5488 17.1176C77.1448 17.1176 76.7483 17.2238 76.401 17.425C76.0796 17.6279 75.8247 17.9164 75.6664 18.2563C75.3407 19.0241 75.3407 19.8865 75.6664 20.6543C75.8185 20.9952 76.0721 21.2837 76.3945 21.4823C76.7405 21.6822 77.1368 21.784 77.5389 21.7765Z" fill="white"/>
<path d="M85.2124 23.4871L82.73 15.4045H85.2288L87.5572 23.4871H85.2124ZM85.97 23.4871V21.5272H88.4065V23.4871H85.97ZM86.862 23.4871L88.8755 15.4045H91.2038L89.0558 23.4871H86.862Z" fill="white"/>
<path d="M96.244 23.7686C95.6022 23.7809 94.965 23.6599 94.3748 23.4137C93.8609 23.1923 93.4022 22.8651 93.0303 22.4545C92.6736 22.0606 92.3955 21.6052 92.2104 21.1117C92.0257 20.6223 91.9313 20.1049 91.9317 19.5834V19.2892C91.9291 18.7582 92.0235 18.231 92.2104 17.7322C92.3944 17.2422 92.669 16.7893 93.0204 16.3958C93.3842 15.9959 93.8315 15.6765 94.3322 15.459C94.9027 15.2208 95.5185 15.1032 96.1391 15.1137C96.9313 15.0885 97.7136 15.2908 98.3887 15.6956C98.9856 16.0715 99.469 16.5957 99.789 17.2142C100.113 17.8498 100.278 18.5509 100.271 19.2605V20.0566H92.9352V18.7137H98.8085L98.0214 19.334C98.0314 18.9111 97.9591 18.4901 97.8083 18.0935C97.6897 17.7797 97.4772 17.508 97.1983 17.3134C96.8878 17.1227 96.5255 17.0279 96.1588 17.0416C95.781 17.0295 95.408 17.1262 95.0864 17.3198C94.7869 17.5219 94.558 17.8087 94.4306 18.1414C94.1346 18.9764 94.1288 19.8831 94.4142 20.7216C94.5381 21.0597 94.7674 21.3515 95.07 21.5561C95.4253 21.7653 95.836 21.8676 96.2506 21.8502C96.63 21.8654 97.0065 21.7792 97.3393 21.6008C97.5958 21.4608 97.7984 21.243 97.9165 20.9806H100.15C100.034 21.5108 99.7902 22.0063 99.4381 22.4257C99.0799 22.8522 98.6238 23.1906 98.1067 23.4137C97.5194 23.6619 96.8839 23.7829 96.244 23.7686Z" fill="white"/>
<path d="M104.295 14.8292V12.719H112.998V14.8292H104.295ZM107.397 23.4873V14.535H109.88V23.4873H107.397Z" fill="white"/>
<path d="M117.432 23.7684C116.771 23.7835 116.113 23.675 115.494 23.4487C114.958 23.246 114.471 22.9368 114.064 22.5407C113.678 22.1651 113.377 21.7154 113.179 21.2202C112.976 20.7206 112.873 20.1877 112.877 19.6504V19.2987C112.874 18.7515 112.979 18.2089 113.185 17.7001C113.389 17.1975 113.698 16.7422 114.094 16.3636C114.509 15.9713 115.001 15.6637 115.54 15.4588C116.767 15.0154 118.117 15.0154 119.344 15.4588C119.878 15.6635 120.364 15.9712 120.774 16.3636C121.166 16.7448 121.475 17.1994 121.682 17.7001C121.898 18.2068 122.009 18.75 122.01 19.2987V19.6376C122.012 20.1747 121.91 20.7074 121.708 21.2074C121.508 21.7013 121.206 22.1504 120.823 22.5279C120.416 22.924 119.929 23.2333 119.393 23.4359C118.767 23.6683 118.102 23.7812 117.432 23.7684ZM117.432 21.7765C117.846 21.7909 118.256 21.6888 118.613 21.4824C118.929 21.2794 119.178 20.9919 119.331 20.6543C119.498 20.2757 119.585 19.8677 119.585 19.4553C119.585 19.043 119.498 18.635 119.331 18.2564C119.171 17.9186 118.918 17.6308 118.6 17.4251C118.252 17.2245 117.856 17.1187 117.452 17.1187C117.048 17.1187 116.651 17.2245 116.304 17.4251C115.98 17.627 115.723 17.9156 115.563 18.2564C115.4 18.6363 115.317 19.0438 115.317 19.4553C115.317 19.8669 115.4 20.2744 115.563 20.6543C115.713 20.9956 115.965 21.2845 116.288 21.4824C116.634 21.6816 117.03 21.7834 117.432 21.7765Z" fill="white"/>
<path d="M63.8606 32.3975H69.9438V34.1368H69.0354V35.9688C68.562 36.7133 67.879 37.3093 67.0678 37.6857C66.1628 38.1003 65.1717 38.3049 64.1721 38.2836C63.2836 38.3029 62.4009 38.1395 61.5814 37.804C60.8844 37.514 60.2617 37.0773 59.7581 36.5251C59.2874 35.9976 58.9255 35.3864 58.6923 34.7251C58.4642 34.09 58.3467 33.4221 58.3447 32.7492V32.4295C58.3442 31.7511 58.4617 31.0776 58.6923 30.4376C58.9254 29.7887 59.2826 29.1887 59.745 28.6696C60.2271 28.1235 60.8259 27.687 61.4995 27.3907C62.2644 27.062 63.0938 26.9005 63.9295 26.9175C64.8422 26.8994 65.7472 27.0842 66.5759 27.4578C67.3131 27.7905 67.9492 28.3038 68.4222 28.9477C68.8929 29.5971 69.1709 30.3604 69.2256 31.1538H66.7431C66.6889 30.7715 66.5239 30.4121 66.2676 30.1179C65.9988 29.8168 65.662 29.5804 65.2838 29.4273C64.8552 29.2527 64.394 29.1667 63.9295 29.1747C63.484 29.1665 63.042 29.2526 62.6341 29.4273C62.2559 29.5878 61.9196 29.8293 61.6503 30.1339C61.3761 30.4522 61.1698 30.8207 61.0436 31.2177C60.9043 31.6654 60.8358 32.1312 60.8403 32.5989C60.8338 33.0817 60.908 33.5622 61.06 34.0217C61.1977 34.4308 61.421 34.8075 61.7159 35.128C62.0048 35.4434 62.3653 35.6886 62.7686 35.8441C63.2142 36.0155 63.6899 36.1002 64.1688 36.0935C64.79 36.1081 65.4045 35.9661 65.9528 35.6811C66.2548 35.5191 66.522 35.302 66.7399 35.0416V34.1464H63.8508L63.8606 32.3975ZM77.8864 31.2082C78.2118 31.7673 78.3698 32.4042 78.3422 33.0466V38.0023H76.4205V36.4484C76.3595 36.6476 76.2759 36.8396 76.1713 37.0207C75.9504 37.3961 75.6253 37.7031 75.2334 37.9063C74.7804 38.1291 74.2779 38.239 73.7708 38.2261C73.2314 38.2349 72.6969 38.1256 72.2065 37.9063C71.7751 37.7136 71.4097 37.404 71.1539 37.0143C70.8937 36.5945 70.7628 36.1106 70.7767 35.6203C70.7536 35.0968 70.9195 34.582 71.2457 34.1656C71.5898 33.7669 72.0456 33.4747 72.5574 33.3247C73.1888 33.1335 73.8475 33.0417 74.5086 33.053H76.0073V33.0242C76.034 32.6877 75.9258 32.3542 75.7056 32.0938C75.5754 31.9787 75.4224 31.8909 75.256 31.8359C75.0895 31.7809 74.9133 31.7599 74.7382 31.7741C74.5152 31.7741 74.2233 31.7741 73.8593 31.7741C73.4953 31.7741 73.1215 31.7964 72.7378 31.8156L71.695 31.8764V29.9037L72.5115 29.8429C72.8394 29.8238 73.1477 29.811 73.4953 29.8014C73.8429 29.7918 74.1512 29.8014 74.4332 29.8014C75.164 29.7816 75.8916 29.9022 76.5746 30.1563C77.1151 30.3627 77.5744 30.731 77.8864 31.2082ZM75.7679 35.9528C75.9295 35.6578 76.0129 35.3281 76.0106 34.9937V34.3542H74.4988C74.1436 34.3291 73.792 34.4365 73.515 34.6548C73.4034 34.7603 73.3164 34.888 73.2598 35.0293C73.2032 35.1705 73.1784 35.3219 73.1871 35.4733C73.1801 35.6202 73.2058 35.7668 73.2624 35.9031C73.319 36.0394 73.4052 36.1622 73.515 36.263C73.789 36.4881 74.141 36.6025 74.4988 36.5827C74.7483 36.587 74.9961 36.5413 75.2268 36.4484C75.4571 36.3442 75.6469 36.1705 75.7679 35.9528ZM91.9089 30.0891C91.4376 29.7965 90.8867 29.6494 90.3282 29.6671H90.22C89.6721 29.6517 89.1323 29.7988 88.6721 30.0891C88.2185 30.3928 87.8744 30.8279 87.6883 31.3328L87.6588 31.4256C87.6588 31.3936 87.6392 31.3616 87.6293 31.3328C87.4498 30.8317 87.1167 30.3964 86.675 30.0859C86.2094 29.7915 85.6621 29.6441 85.1075 29.6639H85.0026C84.4513 29.6459 83.9076 29.7932 83.4449 30.0859C82.9985 30.3917 82.6641 30.8286 82.4906 31.3328C82.4127 31.5411 82.3513 31.7549 82.3069 31.9723V29.9165H80.3852V38.0023H82.8087V33.3119C82.7878 32.9072 82.9222 32.5094 83.1858 32.1961C83.3171 32.0546 83.4792 31.9436 83.6602 31.8711C83.8412 31.7987 84.0365 31.7666 84.2319 31.7773C84.4172 31.7688 84.6021 31.8015 84.7726 31.8729C84.943 31.9444 85.0945 32.0527 85.2157 32.1897C85.4621 32.496 85.5878 32.8783 85.5699 33.2672V38.0023H88.0163V33.3119C87.9966 32.9068 88.1322 32.5091 88.3967 32.1961C88.5258 32.0572 88.6847 31.9477 88.8621 31.8753C89.0395 31.8029 89.231 31.7695 89.4231 31.7773C89.6121 31.7665 89.8011 31.7981 89.9756 31.8696C90.1501 31.9411 90.3055 32.0506 90.4299 32.1897C90.6799 32.4943 90.807 32.8775 90.7873 33.2672V38.0023H93.2075V33.4015C93.2291 32.6992 93.1179 31.9991 92.8795 31.336C92.6976 30.8317 92.3581 30.3956 91.9089 30.0891ZM103.97 32.1449C104.152 32.6735 104.242 33.2278 104.236 33.7851V34.1048C104.242 34.6611 104.152 35.2144 103.97 35.7418C103.803 36.2269 103.54 36.6754 103.196 37.0623C102.862 37.4405 102.447 37.7428 101.98 37.9479C101.475 38.166 100.928 38.2751 100.376 38.2676C99.7533 38.2808 99.1375 38.1365 98.5889 37.8488C98.0727 37.566 97.6522 37.1427 97.3788 36.6307C97.3095 36.5038 97.2492 36.3724 97.1984 36.2374V38.0023H95.2768V27.234H97.6969V31.1922C97.9529 30.7401 98.329 30.3635 98.7857 30.1019C99.3125 29.8161 99.9077 29.6716 100.511 29.6831C101.039 29.675 101.564 29.7775 102.049 29.9836C102.5 30.1802 102.9 30.4731 103.219 30.8405C103.553 31.2245 103.808 31.6673 103.97 32.1449ZM101.79 33.945C101.798 33.5282 101.709 33.115 101.53 32.7364C101.374 32.4043 101.121 32.1244 100.803 31.9317C100.484 31.7389 100.115 31.6419 99.7399 31.6526C99.3806 31.6528 99.0269 31.7395 98.7102 31.9052C98.3897 32.0712 98.1211 32.3187 97.933 32.6213C97.7275 32.9629 97.6252 33.3541 97.6379 33.75V34.2935C97.6266 34.6778 97.734 35.0565 97.9461 35.3805C98.1452 35.672 98.4187 35.9078 98.7397 36.0647C99.0496 36.2187 99.3922 36.2997 99.7399 36.3013C100.123 36.3092 100.499 36.2069 100.822 36.0072C101.138 35.8008 101.387 35.5115 101.54 35.1727C101.715 34.7863 101.8 34.3671 101.79 33.945ZM105.026 27.2308V28.9701H106.01V37.9991H108.447V27.234H105.036L105.026 27.2308ZM118.511 34.5844H112.464C112.497 34.8029 112.554 35.0173 112.634 35.2239C112.757 35.5626 112.987 35.8547 113.29 36.0583C113.635 36.248 114.022 36.3535 114.418 36.3657C114.813 36.378 115.206 36.2967 115.563 36.1287C115.819 35.9887 116.02 35.7708 116.137 35.5084H118.36C118.246 36.0384 118.003 36.534 117.652 36.9536C117.293 37.3795 116.837 37.7178 116.32 37.9415C115.738 38.1872 115.108 38.3082 114.474 38.2964C113.832 38.3093 113.195 38.1883 112.605 37.9415C112.089 37.721 111.63 37.3937 111.257 36.9823C110.902 36.5875 110.626 36.1323 110.44 35.6395C110.255 35.1503 110.159 34.6329 110.158 34.1112V33.8171C110.157 33.2859 110.252 32.7586 110.44 32.26C110.623 31.7695 110.898 31.3163 111.25 30.9236C111.613 30.5227 112.061 30.2032 112.562 29.9868C113.134 29.7487 113.751 29.631 114.372 29.6415C115.163 29.6168 115.945 29.8191 116.619 30.2234C117.216 30.5993 117.699 31.1235 118.019 31.7421C118.344 32.3774 118.51 33.0785 118.504 33.7883L118.511 34.5844ZM112.48 33.2512H116.219C116.188 33.0387 116.132 32.8305 116.051 32.6309C115.931 32.3109 115.712 32.0351 115.425 31.8412C115.116 31.651 114.754 31.5562 114.389 31.5694C114.01 31.5575 113.636 31.6542 113.313 31.8476C113.014 32.0498 112.785 32.3365 112.657 32.6693C112.578 32.8567 112.518 33.0517 112.48 33.2512Z" fill="white"/>
</svg>
