<svg width="245" height="2388" viewBox="0 0 245 2388" fill="none" xmlns="http://www.w3.org/2000/svg">
<path opacity="0.8" fill-rule="evenodd" clip-rule="evenodd" d="M128.58 0.228523L5.40827 191.219C5.1405 191.634 5.00176 192.12 5.00957 192.614L6.99458 318.165C6.99905 318.448 7.05152 318.728 7.14974 318.994L40.2898 408.522C40.4851 409.049 40.8526 409.495 41.3328 409.788L102.24 446.926L102.262 446.94L102.286 446.951L178.286 482.951L178.714 482.048L102.738 446.059L41.8534 408.934C41.5653 408.759 41.3448 408.491 41.2276 408.174L8.08755 318.647C8.02862 318.487 7.99714 318.319 7.99445 318.15L6.00944 192.598C6.00476 192.301 6.088 192.01 6.24866 191.761L129.42 0.7705L128.58 0.228523ZM240.43 1965.26L177.632 2070.91C177.465 2071.2 177.245 2071.44 176.983 2071.64L135.764 2102.55C135.537 2102.72 135.362 2102.95 135.262 2103.22L80.6508 2247.19C80.5606 2247.43 80.5323 2247.69 80.5687 2247.94L93.9399 2340.55C93.9671 2340.74 94.0298 2340.92 94.1248 2341.08L120.433 2386.75L119.567 2387.25L93.2583 2341.58C93.1001 2341.31 92.9955 2341 92.9502 2340.69L79.5789 2248.08C79.5184 2247.66 79.5655 2247.24 79.7158 2246.84L134.327 2102.86C134.495 2102.42 134.785 2102.04 135.164 2101.75L176.383 2070.84C176.54 2070.72 176.672 2070.57 176.772 2070.4L239.57 1964.74L240.43 1965.26ZM161.542 746.113L189.996 516.561L189.004 516.438L160.55 745.99C160.527 746.175 160.47 746.354 160.381 746.519L105.082 848.814C104.884 849.18 104.781 849.588 104.781 850.003V958.979C104.781 959.08 104.771 959.18 104.751 959.279L73.1798 1113.48C73.1393 1113.68 73.0592 1113.87 72.9443 1114.03L0.588623 1218.72L1.41122 1219.28L73.7669 1114.6C73.9584 1114.33 74.092 1114.01 74.1595 1113.68L105.73 959.48C105.764 959.315 105.781 959.147 105.781 958.979V850.003C105.781 849.754 105.843 849.509 105.962 849.29L161.261 746.994C161.409 746.721 161.504 746.422 161.542 746.113ZM22.636 1288.34L147.75 1421.16C147.927 1421.35 148.053 1421.58 148.115 1421.83L174.671 1529.4C174.753 1529.73 174.72 1530.07 174.577 1530.38L138.372 1608.82C138.238 1609.12 138.161 1609.43 138.145 1609.75L132.501 1726.32C132.487 1726.61 132.525 1726.91 132.613 1727.19L162.835 1823.56C162.947 1823.92 163.138 1824.25 163.394 1824.52L243.635 1910.34L244.365 1909.66L164.125 1823.84C163.971 1823.68 163.857 1823.48 163.789 1823.26L133.567 1726.89C133.514 1726.72 133.492 1726.54 133.5 1726.37L139.144 1609.8C139.153 1609.61 139.2 1609.42 139.28 1609.24L175.485 1530.8C175.723 1530.29 175.778 1529.71 175.642 1529.16L149.086 1421.59C148.982 1421.17 148.773 1420.79 148.478 1420.47L23.3639 1287.66L22.636 1288.34Z" fill="#9598AC"/>
<path opacity="0.8" fill-rule="evenodd" clip-rule="evenodd" d="M139.585 4.22071L137.019 8.03055L137.848 8.58926L140.415 4.77942L139.585 4.22071ZM131.886 15.6502L126.753 23.2699L127.582 23.8286L132.715 16.2089L131.886 15.6502ZM121.62 30.8896L116.487 38.5093L117.316 39.068L122.449 31.4483L121.62 30.8896ZM111.354 46.129L106.22 53.7487L107.05 54.3074L112.183 46.6877L111.354 46.129ZM101.087 61.3683L95.9543 68.988L96.7836 69.5467L101.917 61.9271L101.087 61.3683ZM90.8212 76.6077L85.6881 84.2274L86.5175 84.7861L91.6506 77.1664L90.8212 76.6077ZM80.5551 91.8471L75.422 99.4668L76.2513 100.025L81.3844 92.4058L80.5551 91.8471ZM70.2889 107.086L65.1558 114.706L65.9852 115.265L71.1183 107.645L70.2889 107.086ZM60.0228 122.326L54.8897 129.945L55.7191 130.504L60.8521 122.885L60.0228 122.326ZM49.7566 137.565L44.6236 145.185L45.4529 145.744L50.586 138.124L49.7566 137.565ZM39.4905 152.805L34.3574 160.424L35.1868 160.983L40.3198 153.363L39.4905 152.805ZM29.2243 168.044L24.0913 175.664L24.9206 176.222L30.0537 168.603L29.2243 168.044ZM18.9582 183.283L16.3916 187.093C16.1227 187.492 15.9747 187.961 15.9655 188.442L15.8777 193.023L16.8776 193.042L16.9653 188.461C16.9709 188.172 17.0596 187.891 17.221 187.652L19.7876 183.842L18.9582 183.283ZM15.7022 202.185L15.5266 211.347L16.5265 211.366L16.702 202.204L15.7022 202.185ZM15.3511 220.508L15.1755 229.67L16.1754 229.689L16.3509 220.528L15.3511 220.508ZM15 238.832L14.8244 247.994L15.8243 248.013L15.9998 238.851L15 238.832ZM14.6489 257.156L14.4733 266.318L15.4731 266.337L15.6487 257.175L14.6489 257.156ZM14.2978 275.48L14.1222 284.641L15.122 284.661L15.2976 275.499L14.2978 275.48ZM13.9467 293.803L13.7711 302.965L14.7709 302.984L14.9465 293.822L13.9467 293.803ZM13.5956 312.127L13.5078 316.708C13.5015 317.036 13.5599 317.362 13.6795 317.667L15.3422 321.913L16.2733 321.548L14.6106 317.303C14.5389 317.119 14.5038 316.924 14.5076 316.727L14.5954 312.146L13.5956 312.127ZM18.6676 330.404L21.993 338.894L22.9241 338.53L19.5987 330.039L18.6676 330.404ZM25.3184 347.385L28.6438 355.876L29.5749 355.511L26.2495 347.02L25.3184 347.385ZM31.9692 364.367L35.2946 372.857L36.2257 372.493L32.9003 364.002L31.9692 364.367ZM38.62 381.348L41.9454 389.839L42.8765 389.474L39.5511 380.984L38.62 381.348ZM45.2708 398.33L46.9335 402.575C47.1613 403.157 47.5985 403.632 48.1592 403.907L52.1486 405.867L52.5895 404.969L48.6 403.01C48.2636 402.845 48.0013 402.559 47.8646 402.21L46.2019 397.965L45.2708 398.33ZM60.1275 409.786L68.1065 413.705L68.5473 412.807L60.5684 408.888L60.1275 409.786ZM76.0854 417.624L84.0643 421.543L84.5051 420.645L76.5262 416.726L76.0854 417.624ZM92.0432 425.462L100.022 429.381L100.463 428.483L92.4841 424.564L92.0432 425.462ZM108.001 433.3L115.98 437.219L116.421 436.321L108.442 432.402L108.001 433.3ZM123.959 441.138L131.938 445.057L132.379 444.159L124.4 440.24L123.959 441.138ZM139.917 448.976L147.896 452.895L148.337 451.997L140.358 448.078L139.917 448.976ZM155.875 456.814L163.853 460.732L164.294 459.835L156.315 455.916L155.875 456.814ZM171.832 464.651L179.811 468.57L180.252 467.673L172.273 463.754L171.832 464.651ZM187.79 472.489L191.78 474.449L192.221 473.551L188.231 471.592L187.79 472.489ZM242.436 1966.25L240.156 1970.29L239.285 1969.8L241.565 1965.75L242.436 1966.25ZM235.598 1978.37L231.039 1986.46L230.168 1985.97L234.727 1977.88L235.598 1978.37ZM226.48 1994.54L221.921 2002.63L221.05 2002.14L225.609 1994.05L226.48 1994.54ZM217.363 2010.71L212.804 2018.8L211.933 2018.3L216.492 2010.22L217.363 2010.71ZM208.245 2026.88L203.687 2034.96L202.816 2034.47L207.374 2026.39L208.245 2026.88ZM199.128 2043.05L194.569 2051.13L193.698 2050.64L198.257 2042.56L199.128 2043.05ZM190.01 2059.22L185.452 2067.3L184.581 2066.81L189.139 2058.73L190.01 2059.22ZM180.893 2075.39L178.614 2079.43C178.467 2079.69 178.274 2079.92 178.044 2080.12L174.976 2082.69L174.333 2081.93L177.401 2079.35C177.539 2079.23 177.654 2079.1 177.743 2078.94L180.022 2074.9L180.893 2075.39ZM168.839 2087.85L162.703 2093L162.06 2092.24L168.196 2087.08L168.839 2087.85ZM156.567 2098.16L150.43 2103.31L149.787 2102.55L155.923 2097.39L156.567 2098.16ZM144.294 2108.47L141.226 2111.04C141.027 2111.21 140.875 2111.43 140.785 2111.67L139.156 2116.04L138.219 2115.69L139.847 2111.32C139.998 2110.91 140.251 2110.56 140.582 2110.28L143.651 2107.7L144.294 2108.47ZM135.898 2124.79L132.64 2133.54L131.703 2133.19L134.961 2124.44L135.898 2124.79ZM129.382 2142.29L126.125 2151.04L125.187 2150.69L128.445 2141.94L129.382 2142.29ZM122.867 2159.79L119.609 2168.54L118.672 2168.19L121.93 2159.44L122.867 2159.79ZM116.351 2177.29L113.093 2186.04L112.156 2185.69L115.414 2176.94L116.351 2177.29ZM109.836 2194.79L106.578 2203.54L105.641 2203.19L108.898 2194.44L109.836 2194.79ZM103.32 2212.29L100.062 2221.04L99.125 2220.69L102.383 2211.94L103.32 2212.29ZM96.8043 2229.79L93.5465 2238.54L92.6094 2238.19L95.8672 2229.44L96.8043 2229.79ZM90.2887 2247.29L88.6598 2251.66C88.566 2251.91 88.5416 2252.19 88.5893 2252.45L89.3577 2256.71L88.3736 2256.89L87.6052 2252.63C87.5257 2252.19 87.5663 2251.73 87.7227 2251.31L89.3516 2246.94L90.2887 2247.29ZM90.8944 2265.24L92.4311 2273.77L91.447 2273.94L89.9103 2265.42L90.8944 2265.24ZM93.9678 2282.29L95.5046 2290.82L94.5204 2291L92.9837 2282.47L93.9678 2282.29ZM97.0413 2299.35L98.578 2307.87L97.5938 2308.05L96.0571 2299.52L97.0413 2299.35ZM100.115 2316.4L101.651 2324.92L100.667 2325.1L99.1306 2316.57L100.115 2316.4ZM103.188 2333.45L103.956 2337.71C103.974 2337.81 104.002 2337.91 104.039 2338L105.658 2342.07L104.729 2342.44L103.11 2338.37C103.048 2338.22 103.002 2338.06 102.972 2337.89L102.204 2333.63L103.188 2333.45ZM108.895 2350.21L112.133 2358.34L111.204 2358.71L107.966 2350.57L108.895 2350.21ZM115.371 2366.48L118.608 2374.61L117.679 2374.98L114.442 2366.85L115.371 2366.48ZM121.846 2382.75L123.465 2386.82L122.536 2387.18L120.917 2383.12L121.846 2382.75ZM196.959 519.92L197.496 515.561L196.504 515.439L195.966 519.798L196.959 519.92ZM194.808 537.357L195.883 528.639L194.891 528.517L193.816 537.235L194.808 537.357ZM192.658 554.794L193.733 546.076L192.741 545.953L191.665 554.672L192.658 554.794ZM190.507 572.231L191.583 563.513L190.59 563.39L189.515 572.109L190.507 572.231ZM188.357 589.668L189.432 580.95L188.44 580.827L187.364 589.546L188.357 589.668ZM186.207 607.105L187.282 598.387L186.289 598.264L185.214 606.983L186.207 607.105ZM184.056 624.542L185.131 615.824L184.139 615.701L183.064 624.42L184.056 624.542ZM181.906 641.979L182.981 633.261L181.988 633.138L180.913 641.857L181.906 641.979ZM179.755 659.416L180.83 650.698L179.838 650.575L178.763 659.294L179.755 659.416ZM177.605 676.853L178.68 668.134L177.687 668.012L176.612 676.731L177.605 676.853ZM175.454 694.29L176.53 685.571L175.537 685.449L174.462 694.167L175.454 694.29ZM173.304 711.727L174.379 703.008L173.387 702.886L172.311 711.604L173.304 711.727ZM171.153 729.164L172.229 720.445L171.236 720.323L170.161 729.041L171.153 729.164ZM169.541 742.241L170.078 737.882L169.086 737.76L168.548 742.119C168.526 742.297 168.472 742.47 168.39 742.629L166.38 746.486L167.266 746.948L169.276 743.091C169.415 742.826 169.504 742.538 169.541 742.241ZM159.226 762.375L163.246 754.662L162.36 754.199L158.34 761.913L159.226 762.375ZM151.186 777.803L155.206 770.089L154.32 769.627L150.299 777.341L151.186 777.803ZM143.146 793.231L147.166 785.517L146.279 785.055L142.259 792.769L143.146 793.231ZM135.106 808.659L139.126 800.945L138.239 800.483L134.219 808.196L135.106 808.659ZM127.066 824.086L131.086 816.372L130.199 815.91L126.179 823.624L127.066 824.086ZM119.026 839.514L123.046 831.8L122.159 831.338L118.139 839.052L119.026 839.514ZM112.996 851.085L115.006 847.228L114.119 846.766L112.109 850.623C111.923 850.979 111.826 851.376 111.826 851.778V856.085H112.826V851.778C112.826 851.536 112.884 851.299 112.996 851.085ZM112.826 873.314V864.699H111.826V873.314H112.826ZM112.826 890.543V881.928H111.826V890.543H112.826ZM112.826 907.771V899.157H111.826V907.771H112.826ZM112.826 925V916.386H111.826V925H112.826ZM112.826 942.229V933.615H111.826V942.229H112.826ZM112.826 955.151V950.843H111.826V955.151C111.826 955.195 111.824 955.24 111.82 955.285C111.816 955.336 111.809 955.386 111.799 955.436L110.938 959.874L111.92 960.064L112.781 955.626C112.811 955.47 112.826 955.31 112.826 955.151ZM108.479 977.815L110.199 968.94L109.218 968.749L107.497 977.625L108.479 977.815ZM105.037 995.566L106.758 986.691L105.776 986.5L104.055 995.376L105.037 995.566ZM101.595 1013.32L103.316 1004.44L102.335 1004.25L100.614 1013.13L101.595 1013.32ZM98.1539 1031.07L99.8747 1022.19L98.893 1022L97.1722 1030.88L98.1539 1031.07ZM94.7123 1048.82L96.4331 1039.94L95.4514 1039.75L93.7306 1048.63L94.7123 1048.82ZM91.2708 1066.57L92.9916 1057.69L92.0098 1057.5L90.2891 1066.38L91.2708 1066.57ZM87.8292 1084.32L89.55 1075.45L88.5683 1075.26L86.8475 1084.13L87.8292 1084.32ZM84.3876 1102.07L86.1084 1093.2L85.1267 1093.01L83.4059 1101.88L84.3876 1102.07ZM81.8065 1115.39L82.6669 1110.95L81.6851 1110.76L80.8247 1115.2C80.7829 1115.41 80.6941 1115.62 80.5646 1115.79L77.8871 1119.47L78.6954 1120.06L81.3729 1116.38C81.5887 1116.09 81.7367 1115.75 81.8065 1115.39ZM67.9856 1134.76L73.3405 1127.41L72.5322 1126.82L67.1773 1134.17L67.9856 1134.76ZM57.2758 1149.46L62.6307 1142.11L61.8224 1141.52L56.4675 1148.87L57.2758 1149.46ZM46.566 1164.16L51.9209 1156.81L51.1126 1156.22L45.7577 1163.57L46.566 1164.16ZM35.8562 1178.86L41.2111 1171.51L40.4028 1170.92L35.0479 1178.28L35.8562 1178.86ZM25.1464 1193.57L30.5013 1186.22L29.693 1185.63L24.3381 1192.98L25.1464 1193.57ZM14.4366 1208.27L19.7915 1200.92L18.9832 1200.33L13.6283 1207.68L14.4366 1208.27ZM6.40424 1219.29L9.0817 1215.62L8.27342 1215.03L5.59595 1218.71L6.40424 1219.29ZM13.6423 1290.35L16.8343 1293.62L17.5498 1292.92L14.3579 1289.65L13.6423 1290.35ZM23.2182 1300.16L29.6022 1306.7L30.3177 1306L23.9338 1299.46L23.2182 1300.16ZM35.9861 1313.24L42.37 1319.77L43.0856 1319.08L36.7016 1312.54L35.9861 1313.24ZM48.754 1326.31L55.1379 1332.85L55.8534 1332.15L49.4695 1325.61L48.754 1326.31ZM61.5218 1339.39L67.9058 1345.93L68.6213 1345.23L62.2374 1338.69L61.5218 1339.39ZM74.2897 1352.47L80.6737 1359.01L81.3892 1358.31L75.0052 1351.77L74.2897 1352.47ZM87.0576 1365.55L93.4415 1372.08L94.157 1371.39L87.7731 1364.85L87.0576 1365.55ZM99.8255 1378.62L106.209 1385.16L106.925 1384.46L100.541 1377.92L99.8255 1378.62ZM112.593 1391.7L118.977 1398.24L119.693 1397.54L113.309 1391L112.593 1391.7ZM125.361 1404.78L131.745 1411.32L132.461 1410.62L126.077 1404.08L125.361 1404.78ZM138.129 1417.86L144.513 1424.39L145.229 1423.7L138.845 1417.16L138.129 1417.86ZM150.897 1430.93L154.089 1434.2C154.301 1434.42 154.442 1434.7 154.494 1435L155.208 1439.13L156.194 1438.96L155.479 1434.82C155.393 1434.33 155.158 1433.87 154.804 1433.5L151.612 1430.23L150.897 1430.93ZM156.638 1447.4L158.067 1455.67L159.053 1455.5L157.623 1447.23L156.638 1447.4ZM159.497 1463.94L160.926 1472.21L161.911 1472.04L160.482 1463.77L159.497 1463.94ZM162.355 1480.48L163.785 1488.75L164.77 1488.58L163.341 1480.31L162.355 1480.48ZM165.214 1497.02L166.644 1505.29L167.629 1505.12L166.2 1496.85L165.214 1497.02ZM168.073 1513.56L169.502 1521.83L170.488 1521.66L169.058 1513.39L168.073 1513.56ZM170.932 1530.1L171.646 1534.23C171.703 1534.56 171.649 1534.9 171.492 1535.2L169.546 1538.85L170.428 1539.32L172.375 1535.67C172.636 1535.18 172.726 1534.61 172.632 1534.06L171.917 1529.93L170.932 1530.1ZM165.652 1546.16L161.759 1553.47L162.642 1553.94L166.535 1546.63L165.652 1546.16ZM157.866 1560.78L153.973 1568.09L154.855 1568.56L158.749 1561.25L157.866 1560.78ZM150.08 1575.4L146.186 1582.72L147.069 1583.19L150.962 1575.87L150.08 1575.4ZM142.293 1590.03L138.4 1597.34L139.282 1597.81L143.176 1590.5L142.293 1590.03ZM134.507 1604.65L132.56 1608.3C132.402 1608.6 132.305 1608.93 132.276 1609.26L131.91 1613.49L132.906 1613.58L133.272 1609.35C133.29 1609.15 133.348 1608.95 133.443 1608.77L135.389 1605.12L134.507 1604.65ZM131.177 1621.95L130.444 1630.41L131.441 1630.5L132.173 1622.04L131.177 1621.95ZM129.712 1638.87L128.979 1647.33L129.975 1647.42L130.708 1638.96L129.712 1638.87ZM128.246 1655.79L127.514 1664.25L128.51 1664.33L129.243 1655.88L128.246 1655.79ZM126.781 1672.71L126.048 1681.17L127.045 1681.25L127.777 1672.79L126.781 1672.71ZM125.316 1689.63L124.583 1698.09L125.579 1698.17L126.312 1689.71L125.316 1689.63ZM123.85 1706.55L123.118 1715L124.114 1715.09L124.847 1706.63L123.85 1706.55ZM122.385 1723.46L122.019 1727.69C121.987 1728.06 122.037 1728.43 122.166 1728.78L123.68 1732.85L124.617 1732.51L123.103 1728.43C123.026 1728.22 122.996 1728 123.015 1727.78L123.381 1723.55L122.385 1723.46ZM126.707 1741L129.735 1749.15L130.672 1748.81L127.645 1740.66L126.707 1741ZM132.762 1757.3L135.79 1765.45L136.727 1765.11L133.7 1756.96L132.762 1757.3ZM138.817 1773.6L141.845 1781.75L142.782 1781.41L139.755 1773.26L138.817 1773.6ZM144.872 1789.9L147.9 1798.05L148.837 1797.71L145.81 1789.56L144.872 1789.9ZM150.927 1806.2L153.955 1814.35L154.892 1814.01L151.865 1805.86L150.927 1806.2ZM156.982 1822.5L158.496 1826.58C158.613 1826.9 158.793 1827.18 159.025 1827.43L162.301 1830.88L163.027 1830.2L159.751 1826.74C159.612 1826.59 159.504 1826.42 159.433 1826.23L157.92 1822.16L156.982 1822.5ZM168.852 1837.79L175.403 1844.7L176.128 1844.01L169.577 1837.11L168.852 1837.79ZM181.954 1851.61L188.505 1858.52L189.23 1857.83L182.679 1850.92L181.954 1851.61ZM195.056 1865.43L201.607 1872.34L202.332 1871.65L195.781 1864.74L195.056 1865.43ZM208.158 1879.25L214.709 1886.16L215.434 1885.47L208.883 1878.56L208.158 1879.25ZM221.26 1893.07L227.811 1899.98L228.536 1899.29L221.985 1892.38L221.26 1893.07ZM234.362 1906.89L237.637 1910.34L238.363 1909.66L235.087 1906.2L234.362 1906.89Z" fill="#9598AC"/>
</svg>
