<svg xmlns="http://www.w3.org/2000/svg" viewBox="0 0 254.59 2347.53"><defs><style>.cls-1,.cls-2{fill:none;stroke:#9598ac;opacity:0.8;isolation:isolate;}.cls-1{stroke-dasharray:9 9;}</style></defs><g id="Layer_2" data-name="Layer 2"><g id="Layer_1-2" data-name="Layer 1"><path class="cls-1" d="M13.53,1250.28,154,1394.13a2,2,0,0,1,.54,1.06l17.15,99.24a2,2,0,0,1-.21,1.28l-38.93,73.11a2.08,2.08,0,0,0-.23.77L122.05,1688a2,2,0,0,0,.11.87l36.33,97.8a2,2,0,0,0,.43.67l78.61,82.92L250,1889.75l-8.51,36.53-63.82,113.18a1.88,1.88,0,0,1-.46.55l-36.82,30.93a2,2,0,0,0-.58.83l-52.13,140a2,2,0,0,0-.09,1.05L103,2298.08a2.85,2.85,0,0,0,.11.39l19.43,48.81"/><path class="cls-2" d="M5,1179.75l17.49,68.53L147.64,1381.1a1.91,1.91,0,0,1,.49.89l26.56,107.57a2,2,0,0,1-.13,1.31l-36.2,78.44a2.18,2.18,0,0,0-.19.75l-5.64,116.56a2.07,2.07,0,0,0,.09.7l30.22,96.37a1.93,1.93,0,0,0,.45.77l80.24,85.82L254,1887.75l-14.51,37.53-62.8,105.66a2,2,0,0,1-.52.58L135,2062.43a2.11,2.11,0,0,0-.67.89l-54.61,144a2,2,0,0,0-.11,1L93,2300.9a2,2,0,0,0,.25.71l26.31,45.67"/><path class="cls-2" d="M109.53.28,5.39,151.76A2,2,0,0,0,5,152.92L7,278.44a2.21,2.21,0,0,0,.13.67l33.14,89.52a2,2,0,0,0,.83,1L102,406.78l76,36,11,34L160.58,706.34a2,2,0,0,1-.23.7l-55.3,102.3a2,2,0,0,0-.24.95v109a1.75,1.75,0,0,1,0,.4L73.2,1073.86a2,2,0,0,1-.32.74L.53,1179.28,13,1247.75"/><path class="cls-1" d="M118,.28,16.35,147.65a2,2,0,0,0-.36,1.1L13.54,277a2,2,0,0,0,.13.77l33.26,84.91a2,2,0,0,0,1,1.06l143.62,70.54,5,41.5-28,226.68a2,2,0,0,1-.21.68l-56.28,108a2,2,0,0,0-.22.92V915.43a2.33,2.33,0,0,1,0,.38l-31,159.76a2,2,0,0,1-.34.8l-75,102.91"/></g></g></svg>