<svg xmlns="http://www.w3.org/2000/svg" viewBox="0 0 254.92 2941.31"><defs><style>.cls-1,.cls-2{fill:none;stroke:#9598ac;opacity:0.8;isolation:isolate;}.cls-1{stroke-dasharray:9 9;}</style></defs><g id="Layer_2" data-name="Layer 2"><g id="Layer_1-2" data-name="Layer 1"><g id="Layer_2-2" data-name="Layer 2"><g id="Layer_1-2-2" data-name="Layer 1-2"><path class="cls-1" d="M13.92,1567.22l140.47,180.16a2.87,2.87,0,0,1,.54,1.33L172.08,1873a3.09,3.09,0,0,1-.21,1.6l-38.93,91.56a2.87,2.87,0,0,0-.23,1l-10.27,148.29a3,3,0,0,0,.11,1.09L158.88,2239a2.48,2.48,0,0,0,.43.84l78.61,103.85,12.47,24.41-8.51,45.75-63.82,141.74a2.45,2.45,0,0,1-.46.69L140.78,2595a2.58,2.58,0,0,0-.58,1L88.07,2771.39a2.94,2.94,0,0,0-.09,1.32l15.41,106.78a2.88,2.88,0,0,0,.11.49l19.43,61.13"/><path class="cls-2" d="M5.39,1478.89l17.49,85.83L148,1731.06a2.65,2.65,0,0,1,.49,1.12l26.56,134.72a3.14,3.14,0,0,1-.13,1.64l-36.2,98.24a2.91,2.91,0,0,0-.19.94l-5.64,146a3.18,3.18,0,0,0,.09.87l30.22,120.7a2.43,2.43,0,0,0,.45,1l80.24,107.48,10.47,21.88-14.51,47-62.8,132.33a2.61,2.61,0,0,1-.52.73l-41.17,38.71a2.65,2.65,0,0,0-.67,1.11L80.11,2765.82a3.1,3.1,0,0,0-.11,1.25L93.39,2883a2.75,2.75,0,0,0,.25.89l26.31,57.2"/><path class="cls-2" d="M109.73.24,5.39,190.31A2.92,2.92,0,0,0,5,191.77l2,157.5a3.35,3.35,0,0,0,.13.84l33.2,112.33a2.49,2.49,0,0,0,.84,1.25l61,46.62,76.15,45.17,11,42.66L160.87,886.19a2.86,2.86,0,0,1-.23.88l-55.4,128.36a3,3,0,0,0-.24,1.2V1153.4a4.17,4.17,0,0,1,0,.5L73.33,1347.35a3.2,3.2,0,0,1-.32.93L.52,1479.63,13,1565.54"/><path class="cls-1" d="M118.16,1.73,16.51,186.29a3,3,0,0,0-.36,1.38L13.7,348.29a2.88,2.88,0,0,0,.13,1L47.09,455.6a2.34,2.34,0,0,0,1,1.32l143.62,88.35,5,52-28,283.9a3.11,3.11,0,0,1-.21.85l-56.28,135.26a2.94,2.94,0,0,0-.22,1.15v129.46a3.84,3.84,0,0,1,0,.48L81,1348.42a3,3,0,0,1-.34,1l-75,128.88"/></g></g></g></g></svg>